<?xml version="1.0" encoding="UTF-8"?><svg id="Layer_1" xmlns="http://www.w3.org/2000/svg" viewBox="0 0 344 344"><circle cx="172" cy="172" r="168.5" style="fill:none; stroke:#2f269e; stroke-linecap:round; stroke-linejoin:round; stroke-width:7px;"/><polygon points="183.917 331.285 173.024 325.028 161.693 330.454 164.278 318.16 155.616 309.061 168.107 307.72 174.084 296.67 179.219 308.136 191.575 310.406 182.258 318.833 183.917 331.285" style="fill:#2f269e;"/><polygon points="234.525 318.711 222.084 316.962 213.591 326.219 211.41 313.847 199.981 308.63 211.074 302.732 212.504 290.251 221.541 298.978 233.853 296.481 228.346 307.773 234.525 318.711" style="fill:#2f269e;"/><polygon points="274.542 298.015 262.325 295.088 252.987 303.493 251.996 290.97 241.117 284.687 252.721 279.873 255.335 267.585 263.498 277.134 275.992 275.823 269.434 286.538 274.542 298.015" style="fill:#2f269e;"/><polygon points="133.728 324.627 125.49 315.142 113.006 316.55 119.482 305.785 114.284 294.347 126.524 297.179 135.795 288.702 136.885 301.217 147.812 307.415 136.246 312.319 133.728 324.627" style="fill:#2f269e;"/><polygon points="91.719 306.629 83.487 297.14 71.002 298.542 77.483 287.78 72.291 276.34 84.529 279.178 93.805 270.705 94.888 283.221 105.812 289.424 94.244 294.322 91.719 306.629" style="fill:#2f269e;"/><path d="M171.308,78s-49.109,1.151-70.131,28.077c-.562.72-1.146,1.424-1.752,2.108-2.824,3.185-12.616,16.777-11.882,51.472.072,3.394-.311,6.785-1.17,10.069-2.226,8.511-5.851,26.824-.096,39.709.303.677.588,1.362.854,2.054,2.502,6.511,19.392,42.762,85.073,41.801.577-.008,1.156-.004,1.733.015,5.176.17,37.621.115,69.876-25.738,3.192-2.558,5.968-5.605,8.145-9.069,5.754-9.158,13.683-27.92.997-49.554-2.788-4.755-4.484-10.075-4.941-15.568-.836-10.041-3.091-26.508-9.158-38.911-.667-1.364-1.247-2.768-1.734-4.206-2.385-7.039-14.317-31.245-65.812-32.26Z" style="fill:#fff; stroke:#2f269e; stroke-linecap:round; stroke-linejoin:round; stroke-width:5px;"/><ellipse cx="138.29" cy="163.248" rx="3.436" ry="6.252" transform="translate(-6.389 5.635) rotate(-2.282)" style="fill:#2f269e;"/><ellipse cx="196.286" cy="161.819" rx="3.436" ry="6.252" transform="translate(-6.287 7.943) rotate(-2.282)" style="fill:#2f269e;"/><ellipse cx="172.764" cy="194.291" rx="7.703" ry="4.766" transform="translate(-7.264 6.711) rotate(-2.18)" style="fill:#2f269e;"/><path d="M104.3,111.562s-4.578-16.677,5.422-25.823c0,0,19.392-5.812,24.445,12.241" style="fill:#fff; stroke:#2f269e; stroke-linecap:round; stroke-miterlimit:10; stroke-width:5px;"/><path d="M197.032,89.856s7.999-15.142,27.712-10.285c0,0,10.856,11.428,6.285,27.998" style="fill:#fff; stroke:#2f269e; stroke-linecap:round; stroke-miterlimit:10; stroke-width:5px;"/><path d="M138.29,255.657s0-13.432-21.108-23.986c0,0-9.595-12.473-17.27-5.757-3.184,2.786-4.797,11.513,2.55,16.722,0,0-7.823,5.205-8.162,10.843-.008.13.046.248.045.379-.044,6.849,3.621,11.196,19.972,19.165,3.827,1.865,8.241,2.243,12.288.921.057-.019.114-.038.172-.057,0,0,11.514-5.757,11.514-18.23Z" style="fill:#fff; stroke:#2f269e; stroke-linecap:round; stroke-linejoin:round; stroke-width:5px;"/><path d="M229.824,240.8s-3.227-13.045,15.358-28.365c0,0,6.604-14.418,15.897-9.739,3.855,1.941,7.566,10.029,1.466,16.852,0,0,9.077,3.175,10.771,8.569.039.125.014.252.046.379,1.689,6.641-.934,11.743-15.38,23.41-3.381,2.731-7.707,4.158-12.074,3.846-.061-.004-.123-.009-.186-.014,0,0-12.903-2.825-15.899-14.938Z" style="fill:#fff; stroke:#2f269e; stroke-linecap:round; stroke-linejoin:round; stroke-width:5px;"/><path d="M76.39,54.991c-.24.493-.674.99-1.368,1.47l-4.468,3.098c2.089,3.392,5.044,7.95,8.831,13.696.705,1.146.733,1.912.143,2.321-.657.456-1.421-.062-2.352-1.573-3.025-4.51-5.756-9.026-8.098-13.551-1.687.712-3.943,1.622-6.7,2.682-1.466.428-2.365.333-2.789-.355s-.407-1.222.078-1.558l.328-.03c2.369-.727,5.001-1.832,7.859-3.291l7.482-4.141c.271-.122.55.011.804.423s.326.69.25.807Z" style="fill:none; stroke:#2f269e; stroke-linecap:round; stroke-linejoin:round; stroke-width:.75px;"/><path d="M105.301,55.36c.7,4.448,1.143,7.629,1.319,9.424-.124,1.038-.645,1.306-.98,1.479-.41.21-1.314-.36-2.81-1.72-1.592-1.372-3.86-4.221-6.841-8.53,1.263,5.679,1.974,9.148,2.082,10.492.095,1.715-.311,2.838-1.167,3.278-.782.403-2.044-.043-3.688-1.327-5.645-4.704-8.817-7.82-9.492-9.296-.541-1.183-.55-1.908.008-2.196.335-.173,1.052.189,2.076,1.123.599.605,1.279,1.29,2.005,2.071.973,1.022,2.723,2.738,5.325,5.112.433.445,1.323,1.083,2.571,1.902.167-1.547.169-2.947-.005-4.135-.138-1.208-.516-2.839-1.037-4.884-.67-2.271-1.123-3.864-1.341-4.847-.16-.953.032-1.539.516-1.787.224-.115.477-.064.739.106l4.065,5.272c1.333,1.809,3.182,3.841,5.537,5.976l-.164-2.775c-.839-3.342-1.323-5.71-1.432-7.055-.623-3.877-.644-5.936-.086-6.223s1.104.102,1.352.643c.113.247.599,2.918,1.448,7.897Z" style="fill:none; stroke:#2f269e; stroke-linecap:round; stroke-linejoin:round; stroke-width:.75px;"/><path d="M124.298,55.153c-.67,2.131-2.342,3.662-4.996,4.526-3.812,1.084-6.795-.898-8.872-5.98-.626-1.798-.966-3.533-.998-5.272-.026-1.215.256-2.435.845-3.657.589-1.223,1.359-2.05,2.251-2.4,1.927-.929,3.697-1.039,5.292-.381,3.214,1.251,5.307,3.466,6.282,6.645.822,2.363.881,4.558.197,6.519ZM117.908,44.523c-1.254-.56-2.345-.659-3.277-.292-1.203.471-2.027,1.144-2.493,2.085-.827,1.551-.822,3.59.036,6.057.858,2.465,2.104,4.02,3.701,4.679,1.2.406,2.256.399,3.188.035,3.066-1.2,4.088-3.587,3.122-7.119-.75-2.915-2.164-4.698-4.276-5.445Z" style="fill:none; stroke:#2f269e; stroke-linecap:round; stroke-linejoin:round; stroke-width:.75px;"/><path d="M154.363,35.842c-.211.691-.916,1.778-2.192,3.327-1.277.833-2.498,1.436-3.664,1.813-1.164.375-2.765.588-4.754.688.614,2.732,1.183,6.135,1.652,10.101.003.385-.305.592-.839.663-.574.077-.882-.048-.955-.314-.668-2.835-1.471-6.813-2.41-11.93-1.028-5.879-1.803-9.97-2.285-12.279-.481-2.309-.77-3.704-.834-4.249-.103-.868.471-1.663,1.768-2.332.899-.506,1.857-.854,2.925-.997,2.832-.376,5.493.262,8.022,1.912,2.633,1.472,3.719,4.305,4.104,7.567.237,2.009.058,4.021-.538,6.032ZM151.823,26.689c-.751-1.06-1.641-1.88-2.655-2.352-1.599-.835-2.826-1.336-3.708-1.384-2.368-.291-4.101.215-5.151,1.569l2.883,14.518c.976.145,2.008.062,3.18-.258,1.808-.573,3.385-1.335,4.739-2.233.756-.652,1.338-1.723,1.705-3.206.142-1.619.139-3.054-.002-4.249-.207-.691-.555-1.528-.992-2.406Z" style="fill:none; stroke:#2f269e; stroke-linecap:round; stroke-linejoin:round; stroke-width:.75px;"/><path d="M175.137,49.093c-.08.168-.367.283-.821.295-.29.006-.499-.099-.709-.258l-1.615-1.988c-.431,1.16-.991,2.105-1.759,2.945-1.584,1.405-3.433,2.053-5.628,1.942-1.455-.349-2.548-1.09-3.271-2.113-.845-.801-1.295-2.543-1.349-5.116-.031-1.478.144-2.96.526-4.449.349-1.158,1.07-2.271,2.082-3.28,1.054-1.066,1.996-1.583,2.863-1.603.951-.022,1.91.339,2.837,1.138.38.32.675.641.93.909l2.124,2.577c.016-1.151-.05-2.353-.119-3.666-.294-2.184-.919-4.304-1.873-6.363-.912-2.059-1.926-3.076-3.044-3.049-1.488.035-2.823,1.491-3.961,4.421-.398.775-.721,1.167-.927,1.172-.29.007-.5-.152-.549-.535l-.016-.767c-.011-.492.059-1.096.253-1.704,1.046-3.365,2.791-5.05,5.231-5.109.786-.019,1.538.348,2.34,1.095.717.641,1.313,1.447,1.705,2.369,1.421,2.65,2.363,6.132,2.787,10.503.011.492-.015,1.26-.118,2.248-.059,1.097-.084,1.92-.074,2.413.022,1.041.291,2.019.846,2.826l1.361,1.72c.128.161.171.271.175.435.004.218-.072.549-.228.99ZM169.886,41.496c-1.119-2.054-2.632-3.222-4.541-3.506-1.238.194-2.209,1.202-2.96,2.918-.47,1.27-.687,2.699-.655,4.233.024,1.149.378,2.235,1.021,3.261.598.916,1.393,1.336,2.427,1.311,1.365-.032,2.637-.556,3.773-1.623,1.177-1.069,1.733-2.123,1.709-3.271-.024-1.15-.295-2.238-.774-3.323Z" style="fill:none; stroke:#2f269e; stroke-linecap:round; stroke-linejoin:round; stroke-width:.75px;"/><path d="M198.895,42.556c-1.589,4.18-2.776,7.138-3.507,8.768-.616.817-1.192.757-1.562.718-.453-.047-.944-1.033-1.551-3.021-.684-2.05-1.217-5.737-1.643-11.062-1.714,5.544-2.813,8.894-3.38,10.101-.763,1.516-1.662,2.249-2.608,2.15-.865-.09-1.721-1.169-2.492-3.174-2.503-7.135-3.677-11.547-3.526-13.182.121-1.309.469-1.931,1.086-1.868.371.038.805.744,1.219,2.107.213.848.457,1.808.691,2.877.328,1.409.977,3.842,2.03,7.307.15.621.596,1.657,1.257,3.047.903-1.227,1.594-2.421,2.029-3.53.476-1.106.955-2.708,1.517-4.74.544-2.31.942-3.916,1.238-4.877.333-.902.784-1.294,1.319-1.238.247.026.437.21.577.5l.876,6.746c.247,2.28.824,5.036,1.784,8.161l1.224-2.459c.928-3.314,1.679-5.601,2.247-6.808,1.375-3.653,2.368-5.42,2.986-5.356.617.063.891.697.837,1.296-.025.273-.925,2.821-2.647,7.537Z" style="fill:none; stroke:#2f269e; stroke-linecap:round; stroke-linejoin:round; stroke-width:.75px;"/><path d="M214.91,54.261c-1.502,1.266-3.235,1.634-5.251,1.149-1.211-.292-2.266-.714-3.136-1.205-2.912-1.657-4.13-3.692-3.615-6.092.195-.908.528-1.277.972-1.17.282.067.525.52.688,1.345.48,1.52.885,2.403,1.294,2.67,1.125.888,2.589,1.577,4.485,2.035,2.281.044,3.651-.804,4.16-2.59-3.887-3.239-6.168-6.26-6.881-9.071-.26-.961-.206-2.407.195-4.277.218-1.013.769-2.004,1.655-2.97.31-.262.822-.475,1.497-.65.715-.164,1.273-.197,1.636-.11,1.048.252,1.85.671,2.374,1.19,1.039.698,2.124,1.972,3.215,3.806.457.841.642,1.559.505,2.2-.183.853-.436,1.243-.759,1.165-.202-.05-.674-.612-1.327-1.724-1.513-2.443-3.163-3.85-4.978-4.287-.485-.118-1.64,1.12-1.789,1.815-.308,1.441-.26,2.8.093,4.119.665,1.452,1.508,2.667,2.507,3.749.755.631,1.845,1.68,3.179,3.18.722.791.993,1.699.764,2.767-.263,1.229-.774,2.229-1.482,2.956Z" style="fill:none; stroke:#2f269e; stroke-linecap:round; stroke-linejoin:round; stroke-width:.75px;"/><path d="M251.15,50.749c-1.81,4.178-3.463,7.046-4.959,8.608-2.119,2.16-4.371,2.63-6.814,1.437l-.452-.22c-1.69-.825-3.038-2.023-4.062-3.547-.794-1.531-.732-4.093.179-6.721.545-1.784,1.618-4.575,3.277-8.406,1.66-3.83,2.947-6.696,3.923-8.631,1.2-2.246,2.072-3.206,2.711-2.895.602.293.81.756.59,1.371-3.269,7.022-5.43,11.692-6.401,13.932l-1.918,4.426c-.814,2.194-.784,4.017-.028,5.53.595.833,1.802,1.723,3.569,2.585,1.578.77,3.208.059,4.828-2.105,1.367-1.683,2.6-3.795,3.742-6.429,1.056-2.438,1.93-5.085,2.637-7.873.19-1.173.384-2.043.643-2.64.518-1.193,1.077-1.644,1.641-1.369.639.311.831,1.128.518,2.482-.741,3.075-1.943,6.584-3.624,10.465Z" style="fill:none; stroke:#2f269e; stroke-linecap:round; stroke-linejoin:round; stroke-width:.75px;"/><path d="M256.941,71.595c-1.58.959-2.937,1.034-4.027.318-1.442-.948-2.535-2.245-3.34-3.867-1.736,3.561-3.259,6.423-4.667,8.589-.082.14-.347.095-.769-.182-.386-.255-.562-.371-.57-.44.285-.907.84-2.023,1.599-3.328,3.439-6.563,6.221-11.754,8.342-15.64.353-.606,1.121-1.004,2.337-1.171,1.215-.167,2.524.176,3.825,1.032,1.02.668,1.772,1.55,2.22,2.615,1.217,2.667.555,5.388-1.182,8.368-.949,1.629-2.206,2.865-3.767,3.707ZM259.996,64.522c.547-2.023.344-3.508-.584-4.503-.436-.672-.952-1.204-1.481-1.551-.89-.392-1.795-.341-2.686.103-.499.188-1.265,1.167-2.323,2.982-.082.14-.872,1.746-2.317,4.725.626,1.762,1.429,2.804,2.391,3.242,2.425,1.014,4.492.053,6.175-2.834.434-.745.71-1.465.824-2.163Z" style="fill:none; stroke:#2f269e; stroke-linecap:round; stroke-linejoin:round; stroke-width:.75px;"/></svg>