<?xml version="1.0" encoding="UTF-8"?><svg id="Layer_1" xmlns="http://www.w3.org/2000/svg" viewBox="0 0 360 360"><circle cx="182" cy="180" r="168.5" style="fill:none; stroke:#2f269e; stroke-linecap:round; stroke-linejoin:round; stroke-width:7px;"/><polygon points="193.917 339.285 183.024 333.028 171.693 338.454 174.278 326.16 165.616 317.061 178.107 315.72 184.084 304.67 189.219 316.136 201.575 318.406 192.258 326.833 193.917 339.285" style="fill:#2f269e; stroke-width:0px;"/><polygon points="244.525 326.711 232.084 324.962 223.591 334.219 221.41 321.847 209.981 316.63 221.074 310.732 222.504 298.251 231.541 306.978 243.853 304.481 238.346 315.773 244.525 326.711" style="fill:#2f269e; stroke-width:0px;"/><polygon points="284.542 306.015 272.325 303.088 262.987 311.493 261.996 298.97 251.117 292.687 262.721 287.873 265.335 275.585 273.498 285.134 285.992 283.823 279.434 294.538 284.542 306.015" style="fill:#2f269e; stroke-width:0px;"/><polygon points="143.728 332.627 135.49 323.142 123.006 324.55 129.482 313.785 124.284 302.347 136.524 305.179 145.795 296.702 146.885 309.217 157.812 315.415 146.246 320.319 143.728 332.627" style="fill:#2f269e; stroke-width:0px;"/><polygon points="101.719 314.629 93.487 305.14 81.002 306.542 87.483 295.78 82.291 284.34 94.529 287.178 103.805 278.705 104.888 291.221 115.812 297.424 104.244 302.322 101.719 314.629" style="fill:#2f269e; stroke-width:0px;"/><path d="m181.308,86s-49.109,1.151-70.131,28.077c-.562.72-1.146,1.424-1.752,2.108-2.824,3.185-12.616,16.777-11.882,51.472.072,3.394-.311,6.785-1.17,10.069-2.226,8.511-5.851,26.824-.096,39.709.303.677.588,1.362.854,2.054,2.502,6.511,19.392,42.762,85.073,41.801.577-.008,1.156-.004,1.733.015,5.176.17,37.621.115,69.876-25.738,3.192-2.558,5.968-5.605,8.145-9.069,5.754-9.158,13.683-27.92.997-49.554-2.788-4.755-4.484-10.075-4.941-15.568-.836-10.041-3.091-26.508-9.158-38.911-.667-1.364-1.247-2.768-1.734-4.206-2.385-7.039-14.317-31.245-65.812-32.26Z" style="fill:#fff; stroke:#2f269e; stroke-linecap:round; stroke-linejoin:round; stroke-width:5px;"/><ellipse cx="148.29" cy="171.248" rx="3.436" ry="6.252" transform="translate(-6.7 6.039) rotate(-2.282)" style="fill:#2f269e; stroke-width:0px;"/><ellipse cx="206.286" cy="169.819" rx="3.436" ry="6.252" transform="translate(-6.597 8.347) rotate(-2.282)" style="fill:#2f269e; stroke-width:0px;"/><ellipse cx="182.764" cy="202.291" rx="7.703" ry="4.766" transform="translate(-7.561 7.097) rotate(-2.18)" style="fill:#2f269e; stroke-width:0px;"/><path d="m114.3,119.562s-4.578-16.677,5.422-25.823c0,0,19.392-5.812,24.445,12.241" style="fill:#fff; stroke:#2f269e; stroke-linecap:round; stroke-miterlimit:10; stroke-width:5px;"/><path d="m207.032,97.856s7.999-15.142,27.712-10.285c0,0,10.856,11.428,6.285,27.998" style="fill:#fff; stroke:#2f269e; stroke-linecap:round; stroke-miterlimit:10; stroke-width:5px;"/><path d="m138.379,263.321s0-13.432-21.108-23.986c0,0-9.595-12.473-17.27-5.757-3.184,2.786-4.797,11.514,2.55,16.722,0,0-9.201,3.825-5.428,11.102,0,0,.959,5.757,7.676,1.919,0,0-5.757,4.797-1.919,10.554,0,0,2.878,3.838,9.595,1.919,0,0,0,4.797,5.757,6.716,0,0,2.878.959,8.635-.959,0,0,11.514-5.757,11.514-18.23Z" style="fill:#fff; stroke:#2f269e; stroke-linecap:round; stroke-linejoin:round; stroke-width:5px;"/><path d="m100,251.807s5.757-4.797,9.595-1.919c0,0,4.797,1.919,2.878,7.676,0,0,3.838-.959,7.676,1.919,0,0,3.838,1.919.959,8.635,0,0,3.838-2.878,6.716,0,0,0,1.919,1.919,0,5.757" style="fill:#fff; stroke:#2f269e; stroke-linecap:round; stroke-linejoin:round; stroke-width:5px;"/><path d="m233.365,253.726s0-13.432,21.854-23.986c0,0,9.934-12.473,17.881-5.757,3.297,2.786,4.967,11.514-2.64,16.722,0,0,7.04,2.467,7.04,10.143,0,0,0,3.838-5.757,4.797,0,0,3.838,3.838-1.624,9.595,0,0-3.174,3.838-9.89,1.919,0,0,1.943,3.838-4.017,5.757,0,0-6.351,2.47-10.927-.959,0,0-11.92-5.757-11.92-18.23Z" style="fill:#fff; stroke:#2f269e; stroke-linecap:round; stroke-linejoin:round; stroke-width:5px;"/><path d="m273.1,242.213s-5.96-4.797-9.934-1.919c0,0-4.967,1.919-2.98,7.676,0,0-3.973-.959-7.947,1.919,0,0-3.973,1.919-.993,8.635,0,0-3.973-2.878-6.954,0,0,0-1.987,1.919,0,5.757" style="fill:#fff; stroke:#2f269e; stroke-linecap:round; stroke-linejoin:round; stroke-width:5px;"/><text transform="translate(97.514 76.052) rotate(-25.82) scale(.802 1)" style="fill:none; font-family:InkFree, &apos;Ink Free&apos;; font-size:38.389px; stroke:#2f269e; stroke-linecap:round; stroke-linejoin:round; stroke-width:.75px;"><tspan x="0" y="0">T</tspan></text><text transform="translate(116.243 66.961) rotate(-18.431) scale(.802 1)" style="fill:none; font-family:InkFree, &apos;Ink Free&apos;; font-size:38.389px; stroke:#2f269e; stroke-linecap:round; stroke-linejoin:round; stroke-width:.75px;"><tspan x="0" y="0">w</tspan></text><text transform="translate(136.522 60.397) rotate(-13.325) scale(.802 1)" style="fill:none; font-family:InkFree, &apos;Ink Free&apos;; font-size:38.389px; stroke:#2f269e; stroke-linecap:round; stroke-linejoin:round; stroke-width:.75px;"><tspan x="0" y="0">o</tspan></text><text transform="translate(149.018 57.489) rotate(-10.469) scale(.802 1)" style="fill:none; font-family:InkFree, &apos;Ink Free&apos;; font-size:38.389px; stroke:#2f269e; stroke-linecap:round; stroke-linejoin:round; stroke-width:.75px;"><tspan x="0" y="0"> </tspan></text><text transform="translate(158.302 55.67) rotate(-10.069) scale(.802 1)" style="fill:none; font-family:InkFree, &apos;Ink Free&apos;; font-size:38.389px; stroke:#2f269e; stroke-linecap:round; stroke-linejoin:round; stroke-width:.75px;"><tspan x="0" y="0">P</tspan></text><text transform="translate(174.278 52.848) rotate(-2.752) scale(.802 1)" style="fill:none; font-family:InkFree, &apos;Ink Free&apos;; font-size:38.389px; stroke:#2f269e; stroke-linecap:round; stroke-linejoin:round; stroke-width:.75px;"><tspan x="0" y="0">a</tspan></text><text transform="translate(189.659 51.867) rotate(4.779) scale(.802 1)" style="fill:none; font-family:InkFree, &apos;Ink Free&apos;; font-size:38.389px; stroke:#2f269e; stroke-linecap:round; stroke-linejoin:round; stroke-width:.75px;"><tspan x="0" y="0">w</tspan></text><text transform="translate(210.665 53.824) rotate(11.875) scale(.802 1)" style="fill:none; font-family:InkFree, &apos;Ink Free&apos;; font-size:38.389px; stroke:#2f269e; stroke-linecap:round; stroke-linejoin:round; stroke-width:.75px;"><tspan x="0" y="0">s</tspan></text><text transform="translate(223.501 56.598) rotate(16.446) scale(.802 1)" style="fill:none; font-family:InkFree, &apos;Ink Free&apos;; font-size:38.389px; stroke:#2f269e; stroke-linecap:round; stroke-linejoin:round; stroke-width:.75px;"><tspan x="0" y="0"> </tspan></text><text transform="translate(231.407 58.594) rotate(22.361) scale(.802 1)" style="fill:none; font-family:InkFree, &apos;Ink Free&apos;; font-size:38.389px; stroke:#2f269e; stroke-linecap:round; stroke-linejoin:round; stroke-width:.75px;"><tspan x="0" y="0">U</tspan></text><text transform="translate(249.005 65.911) rotate(29.728) scale(.802 1)" style="fill:none; font-family:InkFree, &apos;Ink Free&apos;; font-size:38.389px; stroke:#2f269e; stroke-linecap:round; stroke-linejoin:round; stroke-width:.75px;"><tspan x="0" y="0">p</tspan></text></svg>