<?xml version="1.0" encoding="UTF-8"?><svg id="Layer_1" xmlns="http://www.w3.org/2000/svg" viewBox="0 0 15.967 18.121"><circle cx="7.984" cy="10.138" r="7.859" style="fill:none; stroke:#000; stroke-linecap:round; stroke-linejoin:round; stroke-width:.25px;"/><circle cx="7.902" cy="10.386" r=".754" style="fill:none; stroke:#000; stroke-miterlimit:10; stroke-width:.25px;"/><line x1="8.521" y1="1.423" x2="8.521" y2="2.256" style="fill:none; stroke:#000; stroke-linecap:round; stroke-linejoin:round; stroke-width:.25px;"/><line x1="7.206" y1="1.452" x2="7.206" y2="2.286" style="fill:none; stroke:#000; stroke-linecap:round; stroke-linejoin:round; stroke-width:.25px;"/><path d="m5.914,1.322h3.919s.407-1.182-2.012-1.196c0,0-2.132-.07-1.906,1.196Z" style="fill:none; stroke:#000; stroke-linecap:round; stroke-linejoin:round; stroke-width:.25px;"/><path d="m13.285,3.109l2.163,2.49s.843-.279-.485-1.822c0,0-1.14-1.387-1.678-.668Z" style="fill:none; stroke:#000; stroke-linecap:round; stroke-linejoin:round; stroke-width:.25px;"/><line x1="8.357" y1="9.671" x2="10.321" y2="6.732" style="fill:none; stroke:#000; stroke-linecap:round; stroke-linejoin:round; stroke-width:.25px;"/><line x1="7.887" y1="2.942" x2="7.887" y2="3.766" style="fill:none; stroke:#000; stroke-linecap:round; stroke-linejoin:round; stroke-width:.25px;"/><line x1="7.887" y1="16.507" x2="7.887" y2="17.33" style="fill:none; stroke:#000; stroke-linecap:round; stroke-linejoin:round; stroke-width:.25px;"/><line x1="1.502" y1="10.42" x2=".678" y2="10.42" style="fill:none; stroke:#000; stroke-linecap:round; stroke-linejoin:round; stroke-width:.25px;"/><line x1="3.357" y1="5.782" x2="2.818" y2="5.159" style="fill:none; stroke:#000; stroke-linecap:round; stroke-linejoin:round; stroke-width:.25px;"/><line x1="12.852" y1="15.277" x2="12.313" y2="14.654" style="fill:none; stroke:#000; stroke-linecap:round; stroke-linejoin:round; stroke-width:.25px;"/><line x1="3.135" y1="15.427" x2="3.785" y2="14.922" style="fill:none; stroke:#000; stroke-linecap:round; stroke-linejoin:round; stroke-width:.25px;"/><line x1="12.675" y1="5.947" x2="13.325" y2="5.442" style="fill:none; stroke:#000; stroke-linecap:round; stroke-linejoin:round; stroke-width:.25px;"/><line x1="15.036" y1="10.42" x2="14.213" y2="10.42" style="fill:none; stroke:#000; stroke-linecap:round; stroke-linejoin:round; stroke-width:.25px;"/></svg>