<?xml version="1.0" encoding="UTF-8"?><svg id="Layer_1" xmlns="http://www.w3.org/2000/svg" viewBox="0 0 10.18 15.999"><rect x=".125" y="14.723" width="9.93" height="1.151" rx=".569" ry=".569" style="fill:none; stroke:#000; stroke-linecap:round; stroke-linejoin:round; stroke-width:.25px;"/><rect x=".125" y=".125" width="9.93" height="1.151" rx=".569" ry=".569" style="fill:none; stroke:#000; stroke-linecap:round; stroke-linejoin:round; stroke-width:.25px;"/><path d="m.961,1.3S.329,6.063,3.034,7.455c0,0,.859.321.051,1.124,0,0-2.123,1.579-2.123,6.048" style="fill:none; stroke:#000; stroke-linecap:round; stroke-linejoin:round; stroke-width:.25px;"/><path d="m9.133,1.297s.673,4.764-2.208,6.155c0,0-.915.321-.054,1.124,0,0,2.261,1.579,2.261,6.048" style="fill:none; stroke:#000; stroke-linecap:round; stroke-linejoin:round; stroke-width:.25px;"/><path d="m1.922,4.428s.088.582.438,1.236c1.059,1.984,3.86,2.184,5.16.353.293-.413.513-.94.58-1.613l-6.178.024Z" style="fill:none; stroke:#000; stroke-linecap:round; stroke-linejoin:round; stroke-width:.25px;"/><circle cx="5.107" cy="8.482" r=".102" style="fill:none; stroke:#000; stroke-linecap:round; stroke-linejoin:round; stroke-width:.25px;"/><circle cx="5.107" cy="9.504" r=".102" style="fill:none; stroke:#000; stroke-linecap:round; stroke-linejoin:round; stroke-width:.25px;"/><path d="m1.73,13.937s.095-.54.473-1.148c1.144-1.842,4.169-2.028,5.574-.328.316.383.555.873.627,1.498l-6.673-.023Z" style="fill:none; stroke:#000; stroke-linecap:round; stroke-linejoin:round; stroke-width:.25px;"/></svg>