<?xml version="1.0" encoding="UTF-8"?><svg id="Layer_1" xmlns="http://www.w3.org/2000/svg" viewBox="0 0 60.225 60.185"><path d="M27.788,1.238L2.366,18.635c-1.167.799-1.866,2.133-1.866,3.56v33.195c0,2.372,1.897,4.295,4.237,4.295h50.751c2.34,0,4.237-1.923,4.237-4.295V21.455c0-1.455-.727-2.811-1.931-3.603L32.465,1.195c-1.426-.938-3.267-.921-4.677.043Z" style="fill:#f7deb5; stroke:#777; stroke-miterlimit:10;"/><path d="M57.794,17.849L32.465,1.192c-1.426-.938-3.267-.921-4.677.043L2.366,18.632c-1.167.799-1.866,2.133-1.866,3.56v9.912c0-1.427.699-2.761,1.866-3.56L27.788,11.147c1.409-.964,3.25-.981,4.677-.043l25.329,16.657c1.204.792,1.931,2.148,1.931,3.603v-9.912c0-1.455-.727-2.811-1.931-3.603Z" style="fill:#fcf2de; stroke:#777; stroke-miterlimit:10;"/><path d="M25.906,39.109h8.414c2.719,0,4.927,2.208,4.927,4.927v15.649h-18.268v-15.649c0-2.719,2.208-4.927,4.927-4.927Z" style="fill:#ddbe9b; stroke:#777; stroke-miterlimit:10;"/></svg>