<?xml version="1.0" encoding="UTF-8"?><svg id="Layer_1" xmlns="http://www.w3.org/2000/svg" viewBox="0 0 47.178 59.823"><path d="M40.135,28.517v24.146c0,3.678-2.982,6.659-6.659,6.659H7.159c-3.678,0-6.659-2.982-6.659-6.659V17.953c0-3.678,2.982-6.659,6.659-6.659h1.617" style="fill:none; stroke:#777; stroke-linecap:round; stroke-linejoin:round;"/><path d="M31.331,11.293h2.144c3.678,0,6.659,2.982,6.659,6.659v4.11" style="fill:none; stroke:#777; stroke-linecap:round; stroke-linejoin:round;"/><path d="M29.277,8.593h-5.215v-4.296c0-2.097-1.7-3.797-3.797-3.797s-3.797,1.7-3.797,3.797v4.296h-5.215c-1.134,0-2.053.919-2.053,2.053v3.487c0,1.134.919,2.053,2.053,2.053h18.024c1.134,0,2.053-.919,2.053-2.053v-3.487c0-1.134-.919-2.053-2.053-2.053Z" style="fill:none; stroke:#777; stroke-miterlimit:10;"/><rect x="16.238" y="29.711" width="30.298" height="5.054" transform="translate(-13.241 26.517) rotate(-38.461)" style="fill:none; stroke:#777; stroke-linecap:round; stroke-linejoin:round;"/><path d="M42.163,19.833h5.054v1.151c0,1.395-1.132,2.527-2.527,2.527h0c-1.395,0-2.527-1.132-2.527-2.527v-1.151h0Z" transform="translate(55.516 70.144) rotate(-128.461)" style="fill:none; stroke:#777; stroke-linecap:round; stroke-linejoin:round;"/><polygon points="17.953 39.682 15.299 44.936 21.096 43.639 17.953 39.682" style="fill:none; stroke:#777; stroke-linecap:round; stroke-linejoin:round;"/></svg>