<?xml version="1.0" encoding="UTF-8"?><svg id="Layer_1" xmlns="http://www.w3.org/2000/svg" viewBox="0 0 58.132 60.033"><path d="M55.8,32.543c-.826-1.649-1.289-3.469-1.349-5.326-.11-3.394-.576-8.975-2.34-13.256-.184-.447-1.073-3.201-2.054-4.753-.1-.158-.146-.339-.135-.526.144-2.452-.614-4.44-1.251-5.648-.462-.875-1.299-1.475-2.27-1.634-2.209-.361-3.912.164-5.145.896-.231.137-.501.174-.754.085-2.584-.904-5.755-1.586-9.651-1.878,0,0-7.027-.206-13.862,2.208-.275.097-.571.025-.793-.165-1.496-1.282-3.438-1.401-4.656-1.317-.765.053-1.5.408-1.972,1.017-1.345,1.731-1.595,4.003-1.562,5.637.006.322-.098.634-.31.876-.208.237-.455.516-.574.642-.964,1.022-4.348,5.425-4.665,17.114-.031,1.143-.209,2.278-.539,3.368-.856,2.825-2.321,8.925-.666,13.362.087.233.168.469.243.706.705,2.235,5.587,14.732,26.842,15.56.187.007,12.724.734,23.568-7.401,1.073-.805,2.02-1.782,2.779-2.909,2.007-2.981,4.871-9.156,1.114-16.66Z" style="fill:#fcf2de; stroke:#777; stroke-linecap:round; stroke-linejoin:round;"/><ellipse cx="28.694" cy="37.971" rx="1.74" ry=".876" style="fill:#777;"/><ellipse cx="19.026" cy="27.782" rx=".87" ry="1.752" style="fill:#777;"/><ellipse cx="37.914" cy="27.782" rx=".87" ry="1.752" style="fill:#777;"/></svg>