<?xml version="1.0" encoding="UTF-8"?><svg id="Layer_1" xmlns="http://www.w3.org/2000/svg" viewBox="0 0 18.206 15.845"><path d="m2.524,15.581s-2.034.084-2.367-1.708c0,0-.25-2.543,2.388-2.508,0,0-.221-2.405,2.64-2.397,0,0,2.608-.228,3.319,1.789,0,0,1.296-.195,1.108,1.105,0,0,1.309.276,1.232,2.01,0,0-.042,1.826-2.63,1.81,0,0-3.064.066-5.69-.101Z" style="fill:none; stroke:#000; stroke-linecap:round; stroke-linejoin:round; stroke-width:.3px;"/><polygon points="17.016 5.81 16.339 5.437 15.781 5.976 15.921 5.207 15.245 4.833 16.007 4.731 16.147 3.961 16.479 4.667 17.242 4.565 16.684 5.104 17.016 5.81" style="fill:none; stroke:#000; stroke-linecap:round; stroke-linejoin:round; stroke-width:.25px;"/><path d="m10.829,14.351c.386.067.41.082.815.082,2.86,0,5.319-1.741,6.413-4.238-.895.794-2.064,1.275-3.345,1.275-2.814,0-5.096-2.321-5.096-5.184S11.897,1.102,14.711,1.102c.159,0,.316.008.472.023-1.039-.619-2.248-.975-3.539-.975C7.767.15,4.624,3.347,4.624,7.292c0,.654.064,1.048.225,1.65" style="fill:none; stroke:#000; stroke-linecap:round; stroke-linejoin:round; stroke-width:.3px;"/></svg>