<?xml version="1.0" encoding="UTF-8"?><svg id="Layer_1" xmlns="http://www.w3.org/2000/svg" viewBox="0 0 15.149 14.525"><path d="M13.277,7.136l1.674-2.677c.196-.314-.029-.721-.4-.721h-3.349c-.37,0-.596.407-.4.721l1.674,2.677c.185.295.614.295.799,0Z" style="fill:none; stroke:#000; stroke-linecap:round; stroke-linejoin:round; stroke-width:.25px;"/><path d="M1.299,4.754S1.308.125,7.12.125c0,0,5.757-.087,5.821,3.622" style="fill:none; stroke:#000; stroke-linecap:round; stroke-linejoin:round; stroke-width:.25px;"/><path d="M1.872,7.389L.197,10.066c-.196.314.029.721.4.721h3.349c.37,0,.596-.407.4-.721l-1.674-2.677c-.185-.295-.614-.295-.799,0Z" style="fill:none; stroke:#000; stroke-linecap:round; stroke-linejoin:round; stroke-width:.25px;"/><path d="M13.85,9.772s-.009,4.629-5.821,4.629c0,0-5.757.087-5.821-3.622" style="fill:none; stroke:#000; stroke-linecap:round; stroke-linejoin:round; stroke-width:.25px;"/></svg>