<?xml version="1.0" encoding="UTF-8"?><svg id="Layer_2" xmlns="http://www.w3.org/2000/svg" viewBox="0 0 95.041 74.048"><g id="Layer_1-2"><path d="M82.391,37.423l9.655-13.102c1.224-1.662.038-4.01-2.026-4.01h-19.31c-2.064,0-3.251,2.348-2.026,4.01l9.655,13.102c1.006,1.365,3.046,1.365,4.052,0Z" style="fill:none; stroke:#000; stroke-linecap:round; stroke-linejoin:round; stroke-width:5px;"/><path d="M13.251,25.308s.054-22.775,33.743-22.775c0,0,30.684-1.514,33.55,15.788" style="fill:none; stroke:#000; stroke-linecap:round; stroke-linejoin:round; stroke-width:5px;"/><path d="M12.65,36.626l-9.655,13.102c-1.224,1.662-.038,4.01,2.026,4.01h19.31c2.064,0,3.251-2.348,2.026-4.01l-9.655-13.102c-1.006-1.365-3.046-1.365-4.052,0Z" style="fill:none; stroke:#000; stroke-linecap:round; stroke-linejoin:round; stroke-width:5px;"/><path d="M81.79,48.74s-.054,22.775-33.743,22.775c0,0-30.684,1.514-33.55-15.788" style="fill:none; stroke:#000; stroke-linecap:round; stroke-linejoin:round; stroke-width:5px;"/><polyline points="43.323 29.708 47.481 26.381 47.481 47.173" style="fill:none; stroke:#000; stroke-linecap:round; stroke-linejoin:round; stroke-width:5px;"/><line x1="43.402" y1="47.173" x2="50.471" y2="47.173" style="fill:none; stroke:#000; stroke-linecap:round; stroke-linejoin:round; stroke-width:5px;"/></g></svg>