<?xml version="1.0" encoding="UTF-8"?><svg id="Layer_1" xmlns="http://www.w3.org/2000/svg" viewBox="0 0 23.895 22.012"><path d="M20.816,9.492l2.455-3.379c.309-.426.005-1.023-.521-1.023h-4.911c-.526,0-.83.597-.521,1.023l2.455,3.379c.257.354.785.354,1.042,0Z" style="fill:none; stroke:#000; stroke-linecap:round; stroke-linejoin:round;"/><path d="M3.238,6.378s.014-5.87,8.575-5.87c0,0,7.798-.39,8.526,4.069" style="fill:none; stroke:#000; stroke-linecap:round; stroke-linejoin:round;"/><path d="M3.08,12.52l-2.455,3.379c-.309.426-.005,1.023.521,1.023h4.911c.526,0,.83-.597.521-1.023l-2.455-3.379c-.257-.354-.785-.354-1.042,0Z" style="fill:none; stroke:#000; stroke-linecap:round; stroke-linejoin:round;"/><path d="M20.657,15.634s-.014,5.87-8.575,5.87c0,0-7.798.39-8.526-4.069" style="fill:none; stroke:#000; stroke-linecap:round; stroke-linejoin:round;"/></svg>