<?xml version="1.0" encoding="UTF-8"?><svg id="Layer_2" xmlns="http://www.w3.org/2000/svg" viewBox="0 0 90.985 84.344"><g id="Layer_1-2"><path d="M87.493,16.376l-11.943-12.943c-1.778-1.927-4.997-.669-4.997,1.953v25.887c0,2.622,3.219,3.88,4.997,1.953l11.943-12.943c1.018-1.103,1.018-2.803,0-3.906Z" style="fill:none; stroke:#000; stroke-linecap:round; stroke-linejoin:round; stroke-width:5px;"/><path d="M37.394,36.199c2.211-10.876,12.568-22.309,33.158-17.797" style="fill:none; stroke:#000; stroke-linecap:round; stroke-linejoin:round; stroke-width:5px;"/><path d="M2.5,14.728s23.974-2.601,27.045,22.779" style="fill:none; stroke:#000; stroke-linecap:round; stroke-miterlimit:10; stroke-width:5px;"/><path d="M87.726,67.855l-11.929,13.043c-1.782,1.948-5.027.687-5.027-1.952v-26.085c0-2.64,3.246-3.9,5.027-1.952l11.929,13.043c1.011,1.105,1.011,2.8,0,3.905Z" style="fill:none; stroke:#000; stroke-linecap:round; stroke-linejoin:round; stroke-width:5px;"/><path d="M37.612,47.875c2.211,10.973,12.568,22.507,33.158,17.955" style="fill:none; stroke:#000; stroke-linecap:round; stroke-linejoin:round; stroke-width:5px;"/><path d="M2.693,69.535s23.974,2.625,27.045-22.981" style="fill:none; stroke:#000; stroke-linecap:round; stroke-miterlimit:10; stroke-width:5px;"/></g></svg>