<?xml version="1.0" encoding="UTF-8"?><svg id="Layer_1" xmlns="http://www.w3.org/2000/svg" viewBox="0 0 17.011 12.902"><path d="M16.677,2.332L14.364.253c-.32-.288-.83-.06-.83.37v4.157c0,.43.51.658.83.37l2.313-2.078c.22-.198.22-.542,0-.74Z" style="fill:none; stroke:#000; stroke-miterlimit:10; stroke-width:.25px;"/><path d="M7.246,5.511c.419-1.71,2.384-3.508,6.289-2.798" style="fill:none; stroke:#000; stroke-linecap:round; stroke-miterlimit:10; stroke-width:.25px;"/><path d="M.125,2.135s5.122-.409,5.778,3.582" style="fill:none; stroke:#000; stroke-linecap:round; stroke-miterlimit:10; stroke-width:.25px;"/><path d="M16.722,10.552l-2.311,2.095c-.321.291-.835.063-.835-.37v-4.19c0-.433.514-.661.835-.37l2.311,2.095c.219.198.219.542,0,.74Z" style="fill:none; stroke:#000; stroke-miterlimit:10; stroke-width:.25px;"/><path d="M7.287,7.347c.419,1.725,2.384,3.539,6.289,2.823" style="fill:none; stroke:#000; stroke-linecap:round; stroke-miterlimit:10; stroke-width:.25px;"/><path d="M.166,10.753s5.122.413,5.778-3.614" style="fill:none; stroke:#000; stroke-linecap:round; stroke-miterlimit:10; stroke-width:.25px;"/></svg>