<?xml version="1.0" encoding="UTF-8"?><svg id="Layer_1" xmlns="http://www.w3.org/2000/svg" viewBox="0 0 23.787 23.953"><path d="M20.912,15.719c.123-.93.111-2.301-.429-3.489-.277-.609-.419-1.274-.413-1.946.01-1.229-.078-3.255-.658-4.829-.061-.164-.344-1.173-.678-1.749-.034-.059-.048-.125-.041-.192.088-.885-.158-1.615-.373-2.061-.155-.323-.451-.553-.803-.624-.799-.163-1.427.002-1.887.248-.086.046-.185.056-.276.02-.928-.365-2.073-.659-3.487-.822,0,0-2.556-.178-5.081.594-.102.031-.208,0-.286-.071-.526-.486-1.232-.557-1.676-.545-.28.008-.552.125-.733.339-.515.606-.64,1.424-.652,2.016-.002.117-.045.228-.126.312-.079.083-.173.18-.218.224-.366.355-1.663,1.898-1.95,6.121-.028.413-.11.821-.246,1.21-.353,1.009-.976,3.193-.439,4.823.028.086.054.172.078.259.224.819,1.819,5.41,9.548,6.024.048.004,2.656.155,5.466-.724" style="fill:#fcf2de; stroke:#000; stroke-linecap:round; stroke-linejoin:round; stroke-width:.5px;"/><circle cx="19.544" cy="19.711" r="3.992" style="fill:#fff; stroke:#000; stroke-linecap:round; stroke-linejoin:round; stroke-width:.5px;"/><line x1="19.544" y1="17.543" x2="19.544" y2="21.731" style="fill:#fff; stroke:#000; stroke-linecap:round; stroke-linejoin:round; stroke-width:.75px;"/><line x1="17.45" y1="19.637" x2="21.639" y2="19.637" style="fill:#fff; stroke:#000; stroke-linecap:round; stroke-linejoin:round; stroke-width:.75px;"/></svg>