<?xml version="1.0" encoding="UTF-8"?><svg id="Layer_1" xmlns="http://www.w3.org/2000/svg" viewBox="0 0 21.858 22.376"><path d="M21.136,13.497l-1.155-.667c-.321-.185-.498-.54-.467-.909.021-.242.031-.486.031-.733s-.011-.492-.031-.733c-.031-.369.146-.724.467-.909l1.155-.667c.452-.261.606-.838.346-1.29l-2.16-3.741c-.261-.452-.838-.606-1.29-.346l-1.157.668c-.319.184-.713.164-1.014-.047-.403-.282-.831-.53-1.281-.74-.332-.156-.547-.487-.547-.854v-1.335c0-.522-.423-.944-.944-.944h-4.32c-.522,0-.944.423-.944.944v1.335c0,.367-.214.698-.547.854-.449.21-.878.458-1.281.74-.301.211-.696.231-1.014.047l-1.157-.668c-.452-.261-1.029-.106-1.29.346L.377,7.589c-.261.452-.106,1.029.346,1.29l1.155.667c.321.185.498.54.467.909-.021.242-.031.486-.031.733s.011.492.031.733c.031.369-.146.724-.467.909l-1.155.667c-.452.261-.606.838-.346,1.29l2.16,3.741c.261.452.838.606,1.29.346l1.157-.668c.319-.184.713-.164,1.014.047.403.282.831.53,1.281.74.332.156.547.487.547.854v1.335c0,.521.423.944.944.944h4.32c.522,0,.944-.423.944-.944v-1.335c0-.367.214-.699.547-.854.449-.21.878-.459,1.281-.74.301-.211.696-.231,1.014-.047l1.157.668c.452.261,1.029.106,1.29-.346l2.16-3.741c.261-.452.106-1.029-.346-1.29ZM10.929,14.94c-2.072,0-3.752-1.68-3.752-3.752s1.68-3.752,3.752-3.752,3.752,1.68,3.752,3.752-1.68,3.752-3.752,3.752Z" style="fill:#a5a5a5; stroke:#000; stroke-miterlimit:10; stroke-width:.5px;"/></svg>