<?xml version="1.0" encoding="UTF-8"?><svg id="Layer_1" xmlns="http://www.w3.org/2000/svg" viewBox="0 0 16.473 17.882"><path d="M10.572,1.534h3.916c1.027,0,1.86.833,1.86,1.86l-.09,11.759c0,1.027-2.14,2.53-3.167,2.53l-11.107.075c-1.027,0-1.86-.833-1.86-1.86V3.394C.125,2.367.958,1.534,1.985,1.534h6.097" style="fill:none; stroke:#000; stroke-linecap:round; stroke-linejoin:round; stroke-width:.25px;"/><circle cx="9.307" cy="1.335" r="1.21" style="fill:none; stroke:#000; stroke-linecap:round; stroke-linejoin:round; stroke-width:.25px;"/><path d="M8.147,1.883s.179.359.598.598l-1.155.518.558-1.115Z" style="fill:none; stroke:#000; stroke-linecap:round; stroke-linejoin:round; stroke-width:.25px;"/><path d="M16.199,14.974s-1.334,1.076-2.37.1c0,0,.1,1.733-.856,2.569" style="fill:none; stroke:#000; stroke-linecap:round; stroke-linejoin:round; stroke-width:.25px;"/><path d="M7.944,12.696c-.113.142-.305.208-.588.208s-.611-.474-.973-1.411c-.995-.066-1.594-.133-1.798-.181-.09.237-.226.645-.407,1.223-.057.161-.079.274-.079.332-.09.189-.226.303-.396.331-.113.038-.26.038-.441.01-.271-.038-.407-.161-.407-.37v-.208c.09-.294.215-.683.362-1.185.418-1.544.927-3.07,1.503-4.567.17-.417.441-.625.814-.625.249,0,.463.237.633.71.091.275.181.54.271.796.271.758.543,1.507.814,2.236.374,1.015.6,1.772.69,2.266v.436ZM5.423,8.365l-.599,1.952c.26.02.656.048,1.198.086-.147-.55-.35-1.232-.599-2.038Z"/><path d="M13.848,12.648c-.102.124-.271.181-.509.181-.147-.01-.283-.057-.407-.123l-.136-.086c0,.01-.136.095-.407.256-.486.247-1.085.37-1.798.37-.509-.095-.848-.247-1.018-.445-.316-.209-.475-.569-.475-1.09,0-.304.067-.606.192-.9.136-.256.373-.483.712-.683.351-.208.679-.312.983-.312.34,0,.656.085.95.246.136.057.237.133.316.219.034,0,.046-.02.022-.067-.09-.331-.237-.625-.452-.89-.203-.265-.396-.398-.576-.398-.261,0-.521.208-.792.616-.192.218-.373.332-.554.332-.282,0-.441-.124-.486-.36v-.17c0-.114.034-.247.102-.389.362-.691.961-1.033,1.798-1.033.271,0,.543.085.814.256.226.142.407.303.543.493.406.502.655,1.156.746,1.962,0,.113-.012.265-.046.445-.033.198-.045.322-.045.388,0,.124.079.247.227.37l.361.303c.034.029.046.076.046.152,0,.113-.034.236-.113.359ZM11.892,11.332c-.249-.294-.565-.465-.95-.512-.203.019-.384.133-.531.341-.102.18-.158.369-.158.568,0,.151.067.294.192.417.079.085.226.133.43.133.282,0,.554-.066.803-.189.26-.133.384-.256.384-.37,0-.104-.056-.236-.169-.388Z"/></svg>