<?xml version="1.0" encoding="UTF-8"?>
<svg id="Layer_1" xmlns="http://www.w3.org/2000/svg" viewBox="0 0 18.25 18.25">
  <defs>
    <style>
      .cls-1 {
        fill: none;
        stroke: #000;
        stroke-miterlimit: 10;
        stroke-width: .25px;
      }
    </style>
  </defs>
  <path class="cls-1" d="M8.5.32L.63,5.63c-.31.21-.5.57-.5.95v10.39c0,.63.51,1.15,1.13,1.15h3.74c.62,0,1.13-.51,1.13-1.15v-3.03c0-.63.51-1.15,1.13-1.15h3.74c.62,0,1.13.51,1.13,1.15v3.03c0,.63.51,1.15,1.13,1.15h3.74c.62,0,1.13-.51,1.13-1.15V6.58c0-.38-.19-.74-.5-.95L9.75.32c-.38-.26-.88-.26-1.26,0Z"/>
</svg>