<?xml version="1.0" encoding="UTF-8"?><svg id="Layer_1" xmlns="http://www.w3.org/2000/svg" viewBox="0 0 18.25 18.25"><path d="M8.497.318L.629,5.63c-.315.213-.504.57-.504.954v10.395c0,.633.507,1.146,1.132,1.146h3.737c.625,0,1.132-.513,1.132-1.146v-3.025c0-.633.507-1.146,1.132-1.146h3.737c.625,0,1.132.513,1.132,1.146v3.025c0,.633.507,1.146,1.132,1.146h3.737c.625,0,1.132-.513,1.132-1.146V6.584c0-.383-.189-.741-.504-.954L9.753.318c-.38-.257-.875-.257-1.255,0Z" style="fill:none; stroke:#777; stroke-miterlimit:10; stroke-width:.25px;"/></svg>