<?xml version="1.0" encoding="UTF-8"?><svg id="Layer_1" xmlns="http://www.w3.org/2000/svg" viewBox="0 0 18.586 23.667"><path d="M12.058,22.071H2.746c-1.378,0-2.496-1.117-2.496-2.496V6.606c0-1.378,1.117-2.496,2.496-2.496h.653" style="fill:none; stroke:#000; stroke-linecap:round; stroke-linejoin:round; stroke-width:.5px;"/><path d="M11.799,4.11h.777c1.378,0,2.496,1.117,2.496,2.496l.019,9.782" style="fill:none; stroke:#000; stroke-linecap:round; stroke-linejoin:round; stroke-width:.5px;"/><path d="M11.031,3.276h-1.95v-1.606c0-.784-.636-1.42-1.42-1.42s-1.42.636-1.42,1.42v1.606h-1.95c-.424,0-.768.344-.768.768v1.304c0,.424.344.768.768.768h6.74c.424,0,.768-.344.768-.768v-1.304c0-.424-.344-.768-.768-.768Z" style="fill:none; stroke:#000; stroke-miterlimit:10; stroke-width:.5px;"/><circle cx="14.821" cy="19.902" r="3.515" style="fill:none; stroke:#000; stroke-linecap:round; stroke-linejoin:round; stroke-width:.5px;"/><line x1="14.821" y1="18.491" x2="14.821" y2="21.314" style="fill:none; stroke:#000; stroke-linecap:round; stroke-linejoin:round; stroke-width:.75px;"/><line x1="13.409" y1="19.902" x2="16.233" y2="19.902" style="fill:none; stroke:#000; stroke-linecap:round; stroke-linejoin:round; stroke-width:.75px;"/></svg>