<?xml version="1.0" encoding="UTF-8"?><svg id="Layer_1" xmlns="http://www.w3.org/2000/svg" viewBox="0 0 15.019 18.189"><path d="M12.022,9.515v7.635c0,.505-.409.914-.914.914H1.039c-.505,0-.914-.409-.914-.914V4.32c0-.505.409-.914.914-.914h2.167" style="fill:none; stroke:#777; stroke-linecap:round; stroke-linejoin:round; stroke-width:.25px;"/><path d="M9.386,3.406h1.721c.505,0,.914.409.914.914v3.298" style="fill:none; stroke:#777; stroke-linecap:round; stroke-linejoin:round; stroke-width:.25px;"/><polyline points="13.238 6.723 13.57 6.459 14.402 7.507 14.07 7.77" style="fill:none; stroke:#777; stroke-linecap:round; stroke-linejoin:round; stroke-width:.25px;"/><line x1="1.766" y1="7.216" x2="10.081" y2="7.216" style="fill:none; stroke:#777; stroke-linecap:round; stroke-linejoin:round; stroke-width:.25px;"/><line x1="1.766" y1="8.793" x2="9.561" y2="8.793" style="fill:none; stroke:#777; stroke-linecap:round; stroke-linejoin:round; stroke-width:.25px;"/><line x1="1.766" y1="10.37" x2="7.041" y2="10.37" style="fill:none; stroke:#777; stroke-linecap:round; stroke-linejoin:round; stroke-width:.25px;"/><line x1="1.766" y1="11.946" x2="5.416" y2="11.946" style="fill:none; stroke:#777; stroke-linecap:round; stroke-linejoin:round; stroke-width:.25px;"/><line x1="1.766" y1="13.523" x2="10.081" y2="13.523" style="fill:none; stroke:#777; stroke-linecap:round; stroke-linejoin:round; stroke-width:.25px;"/><line x1="1.766" y1="15.1" x2="10.081" y2="15.1" style="fill:none; stroke:#777; stroke-linecap:round; stroke-linejoin:round; stroke-width:.25px;"/><line x1="1.766" y1="16.531" x2="10.081" y2="16.531" style="fill:none; stroke:#777; stroke-linecap:round; stroke-linejoin:round; stroke-width:.25px;"/><path d="M8.813,2.385h-1.456v-1.2c0-.586-.475-1.06-1.06-1.06s-1.06.475-1.06,1.06v1.2h-1.456c-.317,0-.573.257-.573.573v.974c0,.317.257.573.573.573h5.033c.317,0,.573-.257.573-.573v-.974c0-.317-.257-.573-.573-.573Z" style="fill:none; stroke:#777; stroke-linecap:round; stroke-linejoin:round; stroke-width:.25px;"/><circle cx="6.296" cy="1.315" r=".508" style="fill:none; stroke:#777; stroke-linecap:round; stroke-linejoin:round; stroke-width:.25px;"/><polygon points="6.767 12.717 8.121 12.496 14.402 7.507 13.57 6.459 7.288 11.449 6.767 12.717" style="fill:none; stroke:#777; stroke-linecap:round; stroke-linejoin:round; stroke-width:.25px;"/><path d="M13.698,6.193h1.338v.305c0,.369-.3.669-.669.669h0c-.369,0-.669-.3-.669-.669v-.305h0Z" transform="translate(18.073 22.085) rotate(-128.461)" style="fill:none; stroke:#777; stroke-linecap:round; stroke-linejoin:round; stroke-width:.25px;"/><line x1="7.288" y1="11.449" x2="8.121" y2="12.496" style="fill:none; stroke:#777; stroke-linecap:round; stroke-linejoin:round; stroke-width:.25px;"/></svg>