<?xml version="1.0" standalone="no"?>
<!DOCTYPE svg PUBLIC "-//W3C//DTD SVG 20010904//EN"
 "http://www.w3.org/TR/2001/REC-SVG-20010904/DTD/svg10.dtd">
<svg version="1.0" xmlns="http://www.w3.org/2000/svg"
 width="512.000000pt" height="512.000000pt" viewBox="0 0 512.000000 512.000000"
 preserveAspectRatio="xMidYMid meet">

<g transform="translate(0.000000,512.000000) scale(0.100000,-0.100000)"
fill="#000000" stroke="none">
<path d="M2325 4389 c-174 -23 -393 -88 -540 -161 -358 -179 -604 -495 -633
-813 l-7 -80 -82 -7 c-92 -7 -127 -22 -171 -72 -52 -59 -53 -82 -50 -792 3
-722 -1 -678 72 -742 56 -49 90 -53 372 -50 255 3 256 3 275 27 18 22 19 50
19 801 0 751 -1 779 -19 801 -18 23 -27 24 -150 27 l-131 4 0 34 c0 117 80
313 177 435 489 613 1686 622 2193 16 102 -121 190 -330 190 -451 l0 -34 -131
-4 c-123 -3 -132 -4 -150 -27 -18 -22 -19 -50 -19 -801 0 -751 1 -779 19 -801
17 -22 29 -24 120 -29 l102 -5 -44 -87 c-94 -188 -244 -336 -432 -431 -70 -35
-201 -74 -273 -83 l-61 -6 -14 35 c-22 51 -81 112 -135 139 -43 21 -63 23
-223 26 -204 4 -268 -5 -336 -51 -68 -46 -106 -113 -111 -193 -7 -98 12 -149
77 -214 37 -36 70 -60 97 -68 27 -8 114 -12 245 -12 177 0 209 3 245 19 59 27
108 74 135 130 22 47 26 51 69 56 96 13 242 55 324 93 240 113 449 331 548
575 l32 77 85 0 c114 0 157 13 207 64 32 31 44 54 53 94 15 73 15 1270 0 1342
-12 56 -53 111 -101 136 -17 9 -67 19 -111 22 l-82 7 -6 70 c-10 108 -34 191
-88 300 -181 365 -593 621 -1101 684 -99 13 -355 12 -455 0z m-885 -1889 l0
-690 -212 0 c-183 0 -214 2 -230 17 -17 15 -18 49 -18 671 0 596 2 657 17 674
15 16 35 18 230 18 l213 0 0 -690z m2682 673 c17 -15 18 -49 18 -671 0 -596
-2 -657 -17 -674 -15 -16 -35 -18 -230 -18 l-213 0 0 690 0 690 212 0 c183 0
214 -2 230 -17z m-1316 -2095 c63 -70 42 -179 -42 -214 -47 -20 -364 -20 -402
0 -97 51 -108 181 -20 236 31 19 46 20 231 18 l199 -3 34 -37z"/>
</g>
</svg>
