<?xml version="1.0" encoding="UTF-8"?><svg id="Layer_1" xmlns="http://www.w3.org/2000/svg" viewBox="0 0 20.109 23.937"><path d="M19.81,18.705c-.468-1.628-.882-4.567-1.064-5.97-.061-.472-.093-.947-.107-1.423-.209-7.259-3.965-9.099-3.965-9.099-1.44-.882-4.186-.965-4.689-.973h0s-.014,0-.04,0c-.026,0-.041,0-.041,0h0c-.496.009-3.177.092-4.584.973,0,0-3.674,1.84-3.878,9.099-.013.476-.045.951-.105,1.423-.178,1.403-.583,4.343-1.04,5.97-.176.627.148,1.292.732,1.504,1.576.573,4.693,1.462,8.874,1.473h0c.014,0,.027,0,.041,0,.013,0,.026,0,.04,0h0c4.276-.012,7.465-.901,9.076-1.474.597-.212.929-.877.749-1.504Z" style="fill:none; stroke:#000; stroke-linecap:round; stroke-linejoin:round; stroke-width:.5px;"/><path d="M7.036,21.52s1.506.165,2.869.163c0,0,1.521-.035,3.082-.163,0,0-.092,2.112-2.976,2.167,0,0-2.957-.147-2.976-2.167Z" style="fill:none; stroke:#000; stroke-linecap:round; stroke-linejoin:round; stroke-width:.5px;"/><path d="M9.956.25s.992-.018.992,1.029c0,0-1.111-.083-1.91-.009,0,0-.092-1.001.918-1.019Z" style="fill:none; stroke:#000; stroke-linecap:round; stroke-linejoin:round; stroke-width:.5px;"/></svg>