<?xml version="1.0" encoding="UTF-8"?><svg id="Layer_1" xmlns="http://www.w3.org/2000/svg" viewBox="0 0 16.013 19.09"><path d="M15.848,14.961c-.376-1.308-.709-3.671-.855-4.799-.049-.379-.075-.761-.086-1.144-.168-5.835-3.188-7.315-3.188-7.315-1.158-.709-3.365-.776-3.769-.782h0s-.011,0-.032,0c-.021,0-.033,0-.033,0h0c-.399.007-2.553.074-3.685.783,0,0-2.953,1.479-3.117,7.315-.011.383-.036.764-.084,1.144-.143,1.128-.469,3.491-.836,4.799-.142.504.119,1.038.589,1.209,1.267.46,3.773,1.175,7.134,1.184h0c.011,0,.022,0,.033,0,.011,0,.021,0,.032,0h0c3.438-.009,6.001-.724,7.296-1.185.48-.171.747-.705.602-1.209Z" style="fill:none; stroke:#000; stroke-miterlimit:10; stroke-width:.25px;"/><path d="M5.58,17.223s1.211.133,2.306.131c0,0,1.223-.028,2.478-.131,0,0-.074,1.698-2.392,1.742,0,0-2.377-.118-2.392-1.742Z" style="fill:none; stroke:#000; stroke-miterlimit:10; stroke-width:.25px;"/><path d="M7.927.125s.797-.015.797.827c0,0-.893-.066-1.536-.007,0,0-.074-.805.738-.819Z" style="fill:none; stroke:#000; stroke-miterlimit:10; stroke-width:.25px;"/></svg>