<?xml version="1.0" encoding="UTF-8"?><svg id="Layer_1" xmlns="http://www.w3.org/2000/svg" viewBox="0 0 22.956 23.5"><path d="M20.537,11.75c0-.26-.011-.517-.033-.771-.033-.388.154-.761.491-.955l1.214-.701c.475-.274.638-.881.363-1.356l-2.271-3.933c-.274-.475-.881-.638-1.356-.363l-1.216.702c-.335.193-.75.172-1.066-.05-.424-.296-.874-.557-1.347-.778-.35-.164-.575-.512-.575-.898v-1.404c0-.548-.444-.993-.993-.993h-4.541c-.548,0-.993.444-.993.993v1.404c0,.386-.225.734-.575.898-.473.221-.923.482-1.347.778-.317.222-.732.243-1.066.05l-1.216-.702c-.475-.274-1.082-.111-1.356.363L.383,7.966c-.274.475-.111,1.082.363,1.356l1.214.701c.337.195.524.568.491.955-.022.254-.033.511-.033.771s.011.517.033.771c.033.388-.154.761-.491.955l-1.214.701c-.475.274-.638.881-.363,1.356l2.271,3.933c.274.475.881.638,1.356.363l1.216-.702c.335-.193.75-.172,1.066.05.424.296.874.557,1.347.778.35.164.575.512.575.898v1.404c0,.548.444.993.993.993h4.541c.548,0,.993-.444.993-.993v-1.404c0-.386.225-.734.575-.898.473-.221.923-.482,1.347-.778.317-.222.732-.243,1.066-.05l1.216.702c.475.274,1.082.111,1.356-.363l2.271-3.933c.274-.475.111-1.082-.363-1.356l-1.214-.701c-.337-.195-.524-.568-.491-.955.022-.254.033-.511.033-.771Z" style="fill:none; stroke:#000; stroke-linecap:round; stroke-linejoin:round; stroke-width:.5px;"/><circle cx="11.478" cy="11.75" r="3.944" style="fill:none; stroke:#000; stroke-linecap:round; stroke-linejoin:round; stroke-width:.5px;"/></svg>