<?xml version="1.0" encoding="UTF-8"?><svg id="Layer_1" xmlns="http://www.w3.org/2000/svg" viewBox="0 0 18.281 18.004"><circle cx="9.141" cy="8.999" r="2.958" style="fill:none; stroke:#000; stroke-miterlimit:10; stroke-width:.25px;"/><path d="M16.533,9.197l1.604-.283-.514-2.913-1.602.282c-.27-.684-.64-1.318-1.09-1.885l1.047-1.247-2.266-1.901-1.046,1.246c-.632-.343-1.32-.597-2.046-.745V.125h-2.958v1.627c-.726.147-1.414.401-2.046.745l-1.046-1.246-2.266,1.901,1.047,1.247c-.451.567-.82,1.2-1.09,1.885l-1.602-.282-.514,2.913,1.604.283c.02.748.151,1.468.376,2.144l-1.409.813,1.479,2.562,1.411-.814c.483.544,1.044,1.017,1.667,1.4l-.557,1.53,2.78,1.012.557-1.53c.355.052.719.08,1.089.08s.733-.028,1.089-.08l.557,1.53,2.78-1.012-.557-1.53c.623-.383,1.184-.856,1.667-1.4l1.411.814,1.479-2.562-1.409-.813c.226-.677.357-1.397.376-2.144Z" style="fill:none; stroke:#000; stroke-miterlimit:10; stroke-width:.25px;"/></svg>