<?xml version="1.0" encoding="UTF-8"?><svg id="Layer_1" xmlns="http://www.w3.org/2000/svg" viewBox="0 0 18.077 17.822"><circle cx="9.038" cy="8.999" r="2.958" style="fill:none; stroke:#000; stroke-miterlimit:10; stroke-width:.25px;"/><path d="M16.829,9.127l.692-.122c.283-.05.473-.32.423-.604l-.333-1.887c-.05-.283-.32-.473-.604-.423l-.686.121c-.237.042-.464-.087-.564-.306-.192-.416-.421-.81-.683-1.18-.139-.196-.137-.458.017-.642l.448-.534c.185-.22.156-.549-.064-.734l-1.468-1.232c-.22-.185-.549-.156-.734.064l-.447.533c-.155.184-.412.231-.629.129-.408-.193-.836-.35-1.281-.466-.233-.061-.4-.262-.4-.503v-.696c0-.288-.233-.521-.521-.521h-1.916c-.288,0-.521.233-.521.521v.696c0,.24-.167.442-.4.503-.445.116-.873.273-1.281.466-.217.103-.474.056-.629-.129l-.447-.533c-.185-.22-.514-.249-.734-.064l-1.468,1.232c-.22.185-.249.514-.064.734l.448.534c.155.184.156.446.017.642-.262.37-.491.765-.683,1.18-.101.218-.328.347-.564.306l-.686-.121c-.283-.05-.554.139-.604.423l-.333,1.887c-.05.283.139.554.423.604l.692.122c.234.041.401.239.42.476.038.464.118.916.237,1.352.063.23-.027.47-.233.589l-.607.351c-.249.144-.335.463-.191.712l.958,1.659c.144.249.463.335.712.191l.609-.352c.206-.119.459-.076.627.093.322.326.674.622,1.052.883.195.135.282.377.2.601l-.24.66c-.098.27.041.569.311.668l1.8.655c.27.098.569-.041.668-.311l.379-1.04c.355.052.719.08,1.089.08s.733-.028,1.089-.08l.379,1.04c.098.27.397.41.668.311l1.8-.655c.27-.098.41-.397.311-.668l-.24-.66c-.081-.223.005-.465.2-.601.378-.262.73-.558,1.052-.883.167-.169.421-.212.627-.093l.609.352c.249.144.568.058.712-.191l.958-1.659c.144-.249.058-.568-.191-.712l-.607-.351c-.206-.119-.296-.359-.233-.589.119-.436.2-.888.237-1.352.019-.237.186-.435.42-.476Z" style="fill:none; stroke:#000; stroke-miterlimit:10; stroke-width:.25px;"/></svg>